{"title":"007_Sharks- Air Jaws(Greek audio _Documentary).mp4","uid":9324887,"size":684019790,"categoryP":"video","categoryS":"other","magnet":"?xt=urn:btih:1404e344003408fd3d4dbf9f4b350f0ed1805cd7&amp;dn=007_Sharks-+Air+Jaws%28Greek+audio+_Documentary%29.mp4&amp;tr=udp%3A%2F%2Ftracker.openbittorrent.com%3A80&amp;tr=udp%3A%2F%2Fopen.demonii.com%3A1337&amp;tr=udp%3A%2F%2Ftracker.coppersurfer.tk%3A6969&amp;tr=udp%3A%2F%2Fexodus.desync.com%3A6969","seeders":1,"leechers":0,"uploader":"michel_G","files":-1,"time":1386617554,"description":"007_Sharks- Air Jaws(Greek audio _Documentary).mp4\n==================================================\n\nFormat                                   : MPEG-4\nFormat profile                           : Base Media\nCodec ID                                 : isom\nFile size                                : 652 MiB\nDuration                                 : 50mn 41s\nOverall bit rate mode                    : Variable\nOverall bit rate                         : 1 799 Kbps\nWriting application                      : Lavf53.4.0\n\nVideo\n===========================================================\nID                                       : 1\nFormat                                   : AVC\nFormat/Info                              : Advanced Video Codec\nFormat profile                           : &lt;a class=&quot;__cf_email__&quot; href=&quot;/cdn-cgi/l/email-protection&quot; data-cfemail=&quot;0f476668674f433c213f&quot;&gt;[email&amp;#160;protected]&lt;/a&gt;&lt;script data-cfhash='f9e31' type=&quot;text/javascript&quot;&gt;\n/* &lt;![CDATA[ */!function(){try{var t=&quot;currentScript&quot;in document?document.currentScript:function(){for(var t=document.getElementsByTagName(&quot;script&quot;),e=t.length;e--;)if(t[e].getAttribute(&quot;data-cfhash&quot;))return t[e]}();if(t&amp;&amp;t.previousSibling){var e,r,n,i,c=t.previousSibling,a=c.getAttribute(&quot;data-cfemail&quot;);if(a){for(e=&quot;&quot;,r=parseInt(a.substr(0,2),16),n=2;a.length-n;n+=2)i=parseInt(a.substr(n,2),16)^r,e+=String.fromCharCode(i);e=document.createTextNode(e),c.parentNode.replaceChild(e,c)}t.parentNode.removeChild(t);}}catch(u){}}()/* ]]&gt; */&lt;/script&gt;\nFormat settings, CABAC                   : Yes\nFormat settings, ReFrames                : 4 frames\nCodec ID                                 : avc1\nCodec ID/Info                            : Advanced Video Coding\nDuration                                 : 50mn 41s\nBit rate                                 : 1 719 Kbps\nWidth                                    : 1 280 pixels\nHeight                                   : 720 pixels\nDisplay aspect ratio                     : 16:9\nFrame rate mode                          : Constant\nFrame rate                               : 25.000 fps\nColor space                              : YUV\nChroma subsampling                       : 4:2:0\nBit depth                                : 8 bits\nScan type                                : Progressive\nBits/(Pixel*Frame)                       : 0.075\nStream size                              : 623 MiB (96%)\nWriting library                          : x264 core 116\n\nAudio\n=================================================================\nID                                       : 2\nFormat                                   : AAC\nFormat/Info                              : Advanced Audio Codec\nFormat profile                           : LC\nCodec ID                                 : 40\nDuration                                 : 50mn 41s\nBit rate mode                            : Variable\nBit rate                                 : 76.0 Kbps\nMaximum bit rate                         : 128 Kbps\nChannel(s)                               : 2 channels\nChannel positions                        : Front: L R\nSampling rate                            : 22.05 KHz\nCompression mode                         : Lossy\nDelay relative to video                  : 80ms\nStream size                              : 27.6 MiB (4%)","torrent":{"xt":"urn:btih:1404e344003408fd3d4dbf9f4b350f0ed1805cd7","amp;dn":"007_Sharks-+Air+Jaws%28Greek+audio+_Documentary%29.mp4","amp;tr":["udp%3A%2F%2Ftracker.openbittorrent.com%3A80","udp%3A%2F%2Fopen.demonii.com%3A1337","udp%3A%2F%2Ftracker.coppersurfer.tk%3A6969","udp%3A%2F%2Fexodus.desync.com%3A6969"],"infoHash":"1404e344003408fd3d4dbf9f4b350f0ed1805cd7","infoHashBuffer":{"type":"Buffer","data":[20,4,227,68,0,52,8,253,61,77,191,159,75,53,15,14,209,128,92,215]},"announce":[],"urlList":[]}}